<?xml version="1.0" encoding="UTF-8" standalone="no"?>
<!DOCTYPE svg PUBLIC "-//W3C//DTD SVG 1.1//EN" "http://www.w3.org/Graphics/SVG/1.1/DTD/svg11.dtd">
<svg width="612pt" height="792pt" viewBox="0 0 612 792" overflow="visible" version="1.1" xmlns="http://www.w3.org/2000/svg">
  <path d="M502.0485,614.588 C491.5915,618.8192 481.2004,628.9313 476.3696,641.2279 C471.5388,653.5244 472.2683,668.0054 477.0491,678.2228 C481.2803,688.6799 491.3925,699.0709 503.689,703.9017 C515.9855,708.7325 530.4664,708.003 540.6839,703.2222 C551.141,698.991 561.532,688.8789 566.3628,676.5823 C571.1936,664.2858 570.4641,649.8049 565.6833,639.5874 C561.4521,629.1304 551.34,618.7393 539.0435,613.9085 C526.7469,609.0778 512.266,609.8073 502.0485,614.588 z" stroke="#FFB642" stroke-width="2" fill-opacity="0" />
  <path d="M436.1411,545.2715 C428.8506,550.1174 422.5266,559.4238 420.7699,569.5245 C419.0133,579.6253 421.824,590.5203 427.0504,597.543 C431.8962,604.8334 441.2026,611.1575 451.3033,612.9141 C461.4041,614.6708 472.2991,611.86 479.3218,606.6337 C486.6122,601.7878 492.9362,592.4814 494.6929,582.3807 C496.4496,572.28 493.6388,561.3849 488.4125,554.3622 C483.5667,547.0718 474.2602,540.7478 464.1595,538.9911 C454.0588,537.2345 443.1637,540.0452 436.1411,545.2715 z" stroke="#FFB642" stroke-width="2" fill-opacity="0" />
  <path d="M244.1003,524.8175 C227.8218,518.5494 205.4053,518.9922 186.9605,527.7755 C168.5157,536.5587 154.0425,553.6824 148.6481,570.2709 C142.38,586.5495 142.8228,608.9659 151.606,627.4108 C160.3893,645.8556 177.513,660.3287 194.1016,665.7231 C210.3801,671.9913 232.7966,671.5485 251.2414,662.7653 C269.6862,653.982 284.1594,636.8583 289.5537,620.2697 C295.8219,603.9911 295.3791,581.5747 286.5958,563.1299 C277.8126,544.6851 260.6889,530.2119 244.1003,524.8175 z" stroke="#FFB642" stroke-width="2" fill-opacity="0" />
  <path d="M341.8252,505.4998 C331.7389,505.7622 319.8624,510.9709 311.9574,519.7542 C304.0525,528.5374 300.1192,540.8951 300.9171,550.9532 C301.1794,561.0396 306.3882,572.9161 315.1715,580.821 C323.9547,588.7259 336.3124,592.6592 346.3705,591.8613 C356.4568,591.599 368.3334,586.3902 376.2383,577.6069 C384.1432,568.8237 388.0765,556.466 387.2786,546.4079 C387.0163,536.3216 381.8075,524.4451 373.0242,516.5402 C364.241,508.6352 351.8833,504.7019 341.8252,505.4998 z" stroke="#FFB642" stroke-width="2" fill-opacity="0" />
  <path d="M169.1022,479.3641 C168.9314,465.8321 162.1589,449.8102 150.5211,439.0507 C138.8833,428.2912 122.3802,422.7942 108.8764,423.6837 C95.34435,423.8544 79.32246,430.627 68.563,442.2647 C57.80352,453.9026 52.30646,470.4056 53.19594,483.9095 C53.36669,497.4415 60.13924,513.4634 71.77704,524.2228 C83.41483,534.9823 99.91788,540.4794 113.4217,539.5899 C126.9538,539.4191 142.9756,532.6466 153.7351,521.0088 C164.4946,509.371 169.9917,492.868 169.1022,479.3641 z" stroke="#FFB642" stroke-width="2" fill-opacity="0" />
  <path d="M291.8264,473.6824 C298.6149,467.7623 303.82,457.421 304.2592,446.881 C304.6984,436.3412 300.3716,425.6027 294.0991,419.1383 C288.1789,412.3498 277.8376,407.1447 267.2977,406.7055 C256.7578,406.2664 246.0194,410.5931 239.555,416.8656 C232.7665,422.7858 227.5614,433.1271 227.1222,443.667 C226.683,454.2069 231.0098,464.9454 237.2823,471.4098 C243.2025,478.1983 253.5438,483.4034 264.0837,483.8426 C274.6236,484.2817 285.362,479.9549 291.8264,473.6824 z" stroke="#FFB642" stroke-width="2" fill-opacity="0" />
  <path d="M531.5933,525.9539 C538.5905,522.1612 545.0767,514.2505 547.4921,505.2477 C549.9075,496.2449 548.252,486.1499 544.093,479.3641 C540.3003,472.3669 532.3896,465.8806 523.3868,463.4652 C514.384,461.0498 504.289,462.7054 497.5032,466.8644 C490.506,470.6571 484.0197,478.5677 481.6043,487.5705 C479.1889,496.5733 480.8444,506.6684 485.0035,513.4542 C488.7961,520.4514 496.7068,526.9377 505.7096,529.3531 C514.7124,531.7685 524.8074,530.1129 531.5933,525.9539 z" stroke="#FFB642" stroke-width="2" fill-opacity="0" />
  <path d="M479.3218,455.5011 C487.3538,442.7176 490.7068,423.6044 486.3152,406.4771 C481.9236,389.3498 469.7873,374.2083 456.5951,366.8669 C443.8116,358.8349 424.6985,355.4819 407.5711,359.8735 C390.4438,364.2651 375.3023,376.4014 367.9609,389.5936 C359.929,402.3771 356.5759,421.4902 360.9675,438.6175 C365.3591,455.7449 377.4955,470.8864 390.6876,478.2278 C403.4711,486.2597 422.5842,489.6128 439.7116,485.2212 C456.8389,480.8295 471.9804,468.6932 479.3218,455.5011 z" stroke="#FFB642" stroke-width="2" fill-opacity="0" />
  <path d="M350.9159,378.2302 C355.8138,373.586 359.3882,365.6811 359.3882,357.7762 C359.3882,349.8713 355.8138,341.9664 350.9159,337.3221 C346.2717,332.4243 338.3668,328.8498 330.4618,328.8498 C322.5569,328.8498 314.652,332.4243 310.0078,337.3221 C305.1099,341.9664 301.5355,349.8713 301.5355,357.7762 C301.5355,365.6811 305.1099,373.586 310.0078,378.2302 C314.652,383.1281 322.5569,386.7026 330.4618,386.7026 C338.3668,386.7026 346.2717,383.1281 350.9159,378.2302 z" stroke="#FFB642" stroke-width="2" fill-opacity="0" />
  <path d="M235.0096,403.2296 C242.6427,395.4752 247.9624,382.5409 247.5232,369.8052 C247.084,357.0695 240.886,344.5324 232.737,337.3221 C224.9825,329.6891 212.0482,324.3694 199.3125,324.8086 C186.5768,325.2478 174.0397,331.4458 166.8295,339.5948 C159.1965,347.3492 153.8768,360.2835 154.3159,373.0193 C154.7551,385.7549 160.9531,398.2921 169.1022,405.5023 C176.8566,413.1353 189.7909,418.455 202.5266,418.0158 C215.2623,417.5767 227.7994,411.3787 235.0096,403.2296 z" stroke="#FFB642" stroke-width="2" fill-opacity="0" />
  <path d="M135.0121,332.7768 C142.115,325.0083 146.797,312.3146 145.9186,300.018 C145.0403,287.7215 138.6017,275.8221 130.4668,269.142 C122.6982,262.0391 110.0045,257.3572 97.70799,258.2355 C85.41145,259.1138 73.51208,265.5524 66.83197,273.6873 C59.72907,281.4559 55.04712,294.1496 55.92544,306.4461 C56.80376,318.7427 63.24237,330.642 71.37731,337.3221 C79.14584,344.425 91.83954,349.107 104.1361,348.2287 C116.4326,347.3503 128.332,340.9117 135.0121,332.7768 z" stroke="#FFB642" stroke-width="2" fill-opacity="0" />
  <path d="M233.8733,252.097 C241.5415,243.0173 246.2598,228.4886 244.7227,214.655 C243.1857,200.8214 235.3933,187.6828 225.919,180.5078 C216.8392,172.8396 202.3106,168.1214 188.477,169.6584 C174.6434,171.1955 161.5048,178.9879 154.3298,188.4622 C146.6616,197.5419 141.9433,212.0706 143.4804,225.9042 C145.0175,239.7378 152.8098,252.8763 162.2842,260.0513 C171.3639,267.7196 185.8925,272.4378 199.7261,270.9008 C213.5597,269.3637 226.6983,261.5713 233.8733,252.097 z" stroke="#FFB642" stroke-width="2" fill-opacity="0" />
  <path d="M525.9116,88.46465 C533.5939,78.85481 538.0715,63.68843 536.0953,49.41566 C534.1191,35.14289 525.689,21.76374 515.6845,14.60284 C506.0747,6.9205 490.9083,2.442835 476.6356,4.419064 C462.3628,6.395294 448.9836,14.82542 441.8227,24.82986 C434.1404,34.43969 429.6627,49.60608 431.6389,63.87885 C433.6152,78.15162 442.0453,91.53077 452.0497,98.69167 C461.6596,106.374 476.826,110.8517 491.0987,108.8754 C505.3715,106.8992 518.7507,98.46909 525.9116,88.46465 z" stroke="#FFB642" stroke-width="2" fill-opacity="0" />
  <path d="M505.4575,300.9594 C511.5143,292.6326 514.6802,279.7823 512.4844,267.9249 C510.2885,256.0675 502.731,245.2031 494.0941,239.5973 C485.7673,233.5405 472.9171,230.3746 461.0597,232.5704 C449.2023,234.7663 438.3378,242.3238 432.732,250.9606 C426.6753,259.2875 423.5094,272.1378 425.7052,283.9951 C427.901,295.8525 435.4585,306.717 444.0954,312.3228 C452.4222,318.3795 465.2725,321.5454 477.1299,319.3496 C488.9873,317.1538 499.8517,309.5963 505.4575,300.9594 z" stroke="#FFB642" stroke-width="2" fill-opacity="0" />
  <path d="M404.3236,279.369 C413.0873,268.9922 418.4796,252.388 416.723,236.5782 C414.9663,220.7684 406.0608,205.7529 395.233,197.5529 C384.8561,188.7892 368.252,183.3969 352.4421,185.1535 C336.6323,186.9102 321.6168,195.8158 313.4168,206.6436 C304.6531,217.0204 299.2608,233.6245 301.0175,249.4344 C302.7741,265.2442 311.6797,280.2597 322.5075,288.4597 C332.8843,297.2234 349.4885,302.6157 365.2983,300.8591 C381.1082,299.1024 396.1237,290.1968 404.3236,279.369 z" stroke="#FFB642" stroke-width="2" fill-opacity="0" />
  <path d="M489.5488,207.7799 C496.0793,201.5876 500.8453,191.0477 500.8453,180.5078 C500.8453,169.9679 496.0793,159.4281 489.5488,153.2358 C483.3565,146.7053 472.8167,141.9393 462.2768,141.9393 C451.7369,141.9393 441.197,146.7053 435.0047,153.2358 C428.4742,159.4281 423.7083,169.9679 423.7083,180.5078 C423.7083,191.0477 428.4742,201.5876 435.0047,207.7799 C441.197,214.3104 451.7369,219.0763 462.2768,219.0763 C472.8167,219.0763 483.3565,214.3104 489.5488,207.7799 z" stroke="#FFB642" stroke-width="2" fill-opacity="0" />
  <path d="M388.4149,156.6448 C399.3203,145.5292 406.9026,127.0061 406.2439,108.7808 C405.5851,90.5556 396.6853,72.62825 385.006,62.32893 C373.8903,51.42362 355.3672,43.84124 337.142,44.49998 C318.9167,45.15873 300.9894,54.0586 290.6901,65.73794 C279.7848,76.85357 272.2024,95.37667 272.8611,113.6019 C273.5199,131.8271 282.4197,149.7545 294.0991,160.0538 C305.2147,170.9591 323.7378,178.5415 341.963,177.8828 C360.1883,177.224 378.1156,168.3241 388.4149,156.6448 z" stroke="#FFB642" stroke-width="2" fill-opacity="0" />
  <path d="M219.1009,157.7811 C223.7338,153.1299 226.9893,145.3452 226.7698,137.6599 C226.5502,129.9746 222.8554,122.3885 217.9646,118.0094 C213.3134,113.3766 205.5287,110.121 197.8434,110.3405 C190.1581,110.5601 182.572,114.2549 178.1929,119.1457 C173.56,123.797 170.3044,131.5816 170.524,139.2669 C170.7436,146.9523 174.4384,154.5383 179.3292,158.9175 C183.9804,163.5503 191.7651,166.8059 199.4504,166.5863 C207.1357,166.3667 214.7218,162.672 219.1009,157.7811 z" stroke="#FFB642" stroke-width="2" fill-opacity="0" />
  <path d="M119.1034,108.9187 C126.7223,101.6944 132.2826,89.39783 132.2826,77.1013 C132.2826,64.80476 126.7223,52.50822 119.1034,45.2839 C111.8791,37.66498 99.58255,32.1047 87.28601,32.1047 C74.98947,32.1047 62.69293,37.66498 55.46861,45.2839 C47.84969,52.50822 42.28941,64.80476 42.28941,77.1013 C42.28941,89.39783 47.84969,101.6944 55.46861,108.9187 C62.69293,116.5376 74.98947,122.0979 87.28601,122.0979 C99.58255,122.0979 111.8791,116.5376 119.1034,108.9187 z" stroke="#FFB642" stroke-width="2" fill-opacity="0" />
  <path d="M120.2397,680.4955 C107.7257,682.2848 93.701,690.4894 85.13734,702.5663 C76.57368,714.6433 73.47101,730.5927 75.92265,742.994 C77.71193,755.5081 85.91656,769.5327 97.99352,778.0964 C110.0705,786.66 126.0198,789.7627 138.4211,787.311 C150.9352,785.5218 164.9599,777.3171 173.5235,765.2402 C182.0872,753.1632 185.1898,737.2139 182.7382,724.8126 C180.9489,712.2985 172.7443,698.2739 160.6673,689.7102 C148.5904,681.1465 132.6411,678.0439 120.2397,680.4955 z" stroke="#FFB642" stroke-width="2" fill-opacity="0" />
  <path d="M356.5976,632.7694 C344.8223,636.7003 332.7166,647.095 326.5683,660.2699 C320.42,673.4448 320.2292,689.3998 324.7802,700.9495 C328.711,712.7249 339.1058,724.8306 352.2806,730.9788 C365.4555,737.1271 381.4105,737.3179 392.9603,732.767 C404.7356,728.8361 416.8413,718.4413 422.9896,705.2665 C429.1378,692.0916 429.3286,676.1366 424.7777,664.5868 C420.8468,652.8115 410.4521,640.7058 397.2772,634.5576 C384.1024,628.4093 368.1473,628.2184 356.5976,632.7694 z" stroke="#FFB642" stroke-width="2" fill-opacity="0" />
</svg>