<?xml version="1.0" encoding="UTF-8" standalone="no"?>
<!DOCTYPE svg PUBLIC "-//W3C//DTD SVG 1.1//EN" "http://www.w3.org/Graphics/SVG/1.1/DTD/svg11.dtd">
<svg width="612pt" height="792pt" viewBox="0 0 612 792" overflow="visible" version="1.1" xmlns="http://www.w3.org/2000/svg">

  <path id="wave_1" d="M23.90247,23.57277 C23.22755,30.23039 30.77475,37.77759 37.43237,37.10267 C44.08999,37.77759 51.63733,30.23039 50.96228,23.57277 C50.28736,30.23039 57.83456,37.77759 64.49231,37.10267 C71.14993,37.77759 78.69713,30.23039 78.02222,23.57277 C77.34717,30.23039 84.8945,37.77759 91.55212,37.10267 C98.20974,37.77759 105.7571,30.23039 105.082,23.57277 C104.4071,30.23039 111.9543,37.77759 118.6119,37.10267 C125.2695,37.77759 132.8169,30.23039 132.142,23.57277 C131.467,30.23039 139.0143,37.77759 145.6719,37.10267 C152.3295,37.77759 159.8767,30.23039 159.2018,23.57277 C158.5269,30.23039 166.0741,37.77759 172.7318,37.10267 C179.3894,37.77759 186.9366,30.23039 186.2617,23.57277" stroke="#0000FF" stroke-width="4" fill-opacity="0" />
  <path id="wave_2" d="M427.1582,23.57277 C426.4833,30.23039 434.0305,37.77759 440.6881,37.10267 C447.3458,37.77759 454.8931,30.23039 454.218,23.57277 C453.5431,30.23039 461.0903,37.77759 467.7481,37.10267 C474.4057,37.77759 481.9529,30.23039 481.278,23.57277 C480.6029,30.23039 488.1503,37.77759 494.8079,37.10267 C501.4655,37.77759 509.0128,30.23039 508.3378,23.57277 C507.6629,30.23039 515.2101,37.77759 521.8677,37.10267 C528.5253,37.77759 536.0726,30.23039 535.3978,23.57277 C534.7228,30.23039 542.27,37.77759 548.9276,37.10267 C555.5853,37.77759 563.1324,30.23039 562.4575,23.57277 C561.7827,30.23039 569.3298,37.77759 575.9876,37.10267 C582.6452,37.77759 590.1924,30.23039 589.5175,23.57277" stroke="#0000FF" stroke-width="4" fill-opacity="0" />
  <path id="container_inner" d="M406.9955,4.630783 L427.1583,4.630783 L427.1583,194.4023 L186.2617,194.4023 L186.2617,4.630783 L206.4245,4.630783" stroke="#FFFFFF" stroke-width="4" fill-opacity="0" />
  <path id="container_outter" d="M3.739698,4.630783 L23.9025,4.630783 L23.9025,248.1697 L186.2617,248.1697 L427.1583,248.1697 L589.5175,248.1697 L589.5175,4.630783 L609.6803,4.630783" stroke="#FFFFFF" stroke-width="4" fill-opacity="0" />
  <path id="arrow_1" d="M188.4242,223.8254 L188.4242,213.586 L217.7771,213.586 L217.7771,207.101 L231.7709,218.7057 L217.7771,230.3103 L217.7771,223.8254 z" stroke="#0000FF" stroke-width="4" fill-opacity="0" />
</svg>