<?xml version="1.0" encoding="UTF-8" standalone="no"?>
<!DOCTYPE svg PUBLIC "-//W3C//DTD SVG 1.1//EN" "http://www.w3.org/Graphics/SVG/1.1/DTD/svg11.dtd">
<svg width="612pt" height="792pt" viewBox="0 0 612 792" overflow="visible" version="1.1" xmlns="http://www.w3.org/2000/svg">
  <path d="M176.736,4.630783 L185.3859,4.630783 L185.3859,86.04259 L82.04147,86.04259 L82.04147,4.630783 L90.6913,4.630783" stroke="#000000" stroke-width="28.32" fill-opacity="0" />
  <path d="M349.7324,4.630783 L358.3822,4.630783 L358.3822,86.04259 L255.0378,86.04259 L255.0378,4.630783 L263.6876,4.630783" stroke="#000000" stroke-width="28.32" fill-opacity="0" />
  <path d="M577.7376,157.0848 L577.7376,109.1088 L601.0305,109.1088 L601.0305,4.630783 L609.6803,4.630783" stroke="#000000" stroke-width="28.32" fill-opacity="0" />
  <path d="M3.739698,4.630783 L12.38952,4.630783 L12.38952,109.1088 L82.04147,109.1088 L185.3859,109.1088 L255.0378,109.1088 L358.3822,109.1088 L428.0341,109.1088 L531.3785,109.1088 L554.6714,109.1088 L554.6714,157.0848" stroke="#000000" stroke-width="28.32" fill-opacity="0" />
  <path d="M522.7287,4.630783 L531.3785,4.630783 L531.3785,86.04259 L428.0341,86.04259 L428.0341,4.630783 L436.684,4.630783" stroke="#000000" stroke-width="28.32" fill-opacity="0" />
  <path d="M438.8479,99.77202 L426.2556,99.77202 L426.2556,95.37933 L438.8479,95.37933 L438.8479,92.59728 L444.8512,97.57568 L438.8479,102.554 z" stroke="#FF00FF" stroke-width="11.28" fill-opacity="0" />
  <path d="M564.0082,119.5192 L564.0082,106.9269 L568.4008,106.9269 L568.4008,119.5192 L571.1829,119.5192 L566.2045,125.5226 L561.2261,119.5192 z" stroke="#FF00FF" stroke-width="11.28" fill-opacity="0" />
  <path d="M265.8516,99.77202 L253.2592,99.77202 L253.2592,95.37933 L265.8516,95.37933 L265.8516,92.59728 L271.8549,97.57568 L265.8516,102.554 z" stroke="#FF00FF" stroke-width="11.28" fill-opacity="0" />
  <path d="M92.85522,99.77202 L80.26288,99.77202 L80.26288,95.37933 L92.85522,95.37933 L92.85522,92.59728 L98.85857,97.57568 L92.85522,102.554 z" stroke="#FF00FF" stroke-width="11.28" fill-opacity="0" />
  <path d="M12.3895,12.75687 C12.09996,15.61298 15.3377,18.85072 18.19381,18.56118 C21.04992,18.85072 24.28772,15.61298 23.99813,12.75687 C23.70859,15.61298 26.94633,18.85072 29.8025,18.56118 C32.65861,18.85072 35.89635,15.61298 35.60682,12.75687 C35.31722,15.61298 38.55502,18.85072 41.41113,18.56118 C44.26724,18.85072 47.50504,15.61298 47.21545,12.75687 C46.92591,15.61298 50.16365,18.85072 53.01976,18.56118 C55.87587,18.85072 59.11367,15.61298 58.82413,12.75687 C58.5346,15.61298 61.77234,18.85072 64.62845,18.56118 C67.48456,18.85072 70.72231,15.61298 70.43276,12.75687 C70.14323,15.61298 73.38097,18.85072 76.23714,18.56118 C79.09325,18.85072 82.33099,15.61298 82.04145,12.75687" stroke="#000000" stroke-width="0.24" fill-opacity="0" />
  <path d="M185.3858,12.75687 C185.0963,15.61298 188.334,18.85072 191.1901,18.56118 C194.0463,18.85072 197.2841,15.61298 196.9945,12.75687 C196.7049,15.61298 199.9427,18.85072 202.7988,18.56118 C205.655,18.85072 208.8927,15.61298 208.6031,12.75687 C208.3136,15.61298 211.5514,18.85072 214.4075,18.56118 C217.2636,18.85072 220.5014,15.61298 220.2118,12.75687 C219.9222,15.61298 223.16,18.85072 226.0161,18.56118 C228.8722,18.85072 232.11,15.61298 231.8205,12.75687 C231.5309,15.61298 234.7687,18.85072 237.6248,18.56118 C240.4809,18.85072 243.7186,15.61298 243.4291,12.75687 C243.1396,15.61298 246.3773,18.85072 249.2335,18.56118 C252.0896,18.85072 255.3273,15.61298 255.0378,12.75687" stroke="#000000" stroke-width="0.24" fill-opacity="0" />
  <path d="M358.3822,12.75687 C358.0926,15.61298 361.3304,18.85072 364.1865,18.56118 C367.0426,18.85072 370.2804,15.61298 369.9908,12.75687 C369.7013,15.61298 372.939,18.85072 375.7952,18.56118 C378.6513,18.85072 381.889,15.61298 381.5995,12.75687 C381.3099,15.61298 384.5477,18.85072 387.4038,18.56118 C390.2599,18.85072 393.4977,15.61298 393.2081,12.75687 C392.9186,15.61298 396.1563,18.85072 399.0124,18.56118 C401.8685,18.85072 405.1064,15.61298 404.8168,12.75687 C404.5273,15.61298 407.765,18.85072 410.6211,18.56118 C413.4772,18.85072 416.715,15.61298 416.4254,12.75687 C416.1359,15.61298 419.3736,18.85072 422.2298,18.56118 C425.0859,18.85072 428.3237,15.61298 428.0341,12.75687" stroke="#000000" stroke-width="0.24" fill-opacity="0" />
  <path d="M531.3785,12.75687 C531.089,15.61298 534.3267,18.85072 537.1828,18.56118 C540.0389,18.85072 543.2767,15.61298 542.9871,12.75687 C542.6976,15.61298 545.9354,18.85072 548.7915,18.56118 C551.6476,18.85072 554.8854,15.61298 554.5958,12.75687 C554.3062,15.61298 557.544,18.85072 560.4001,18.56118 C563.2562,18.85072 566.494,15.61298 566.2045,12.75687 C565.9149,15.61298 569.1526,18.85072 572.0088,18.56118 C574.8649,18.85072 578.1027,15.61298 577.8131,12.75687 C577.5236,15.61298 580.7614,18.85072 583.6174,18.56118 C586.4736,18.85072 589.7113,15.61298 589.4218,12.75687 C589.1322,15.61298 592.37,18.85072 595.2261,18.56118 C598.0823,18.85072 601.32,15.61298 601.0305,12.75687" stroke="#000000" stroke-width="0.24" fill-opacity="0" />
</svg>