<?xml version="1.0" encoding="UTF-8" standalone="no"?>
<!DOCTYPE svg PUBLIC "-//W3C//DTD SVG 1.1//EN" "http://www.w3.org/Graphics/SVG/1.1/DTD/svg11.dtd">
<svg width="612pt" height="792pt" viewBox="0 0 612 792" overflow="visible" version="1.1" xmlns="http://www.w3.org/2000/svg">
  <path d="M372.3988,590.8502 L372.3988,570.3715 L431.1046,570.3715 L431.1046,557.4016 L459.0922,580.6108 L431.1046,603.8201 L431.1046,590.8502 z" stroke="#000000" stroke-width="0.24" fill-opacity="0" />
  <path d="M3.029726,152.4611 L43.35531,152.4611 L43.35531,532.0041 L3.029726,532.0041" stroke="#000000" stroke-width="0.24" fill-opacity="0" />
  <path d="M608.9703,532.0041 L368.0738,532.0041 L368.0738,152.4611 L408.3994,152.4611" stroke="#000000" stroke-width="0.24" fill-opacity="0" />
  <path d="M3.029726,639.5389 L608.9703,639.5389" stroke="#000000" stroke-width="0.24" fill-opacity="0" />
  <path d="M43.35528,190.3451 C42.00545,203.6603 57.09985,218.7547 70.41508,217.4049 C83.73032,218.7547 98.825,203.6603 97.47489,190.3451 C96.12506,203.6603 111.2195,218.7547 124.535,217.4049 C137.8502,218.7547 152.9446,203.6603 151.5948,190.3451 C150.2447,203.6603 165.3393,218.7547 178.6546,217.4049 C191.9698,218.7547 207.0645,203.6603 205.7144,190.3451 C204.3646,203.6603 219.459,218.7547 232.7742,217.4049 C246.0894,218.7547 261.1841,203.6603 259.8343,190.3451 C258.4844,203.6603 273.5788,218.7547 286.8941,217.4049 C300.2093,218.7547 315.3037,203.6603 313.9539,190.3451 C312.6041,203.6603 327.6985,218.7547 341.0139,217.4049 C354.3292,218.7547 369.4236,203.6603 368.0738,190.3451" stroke="#000000" stroke-width="0.24" fill-opacity="0" />
</svg>