<?xml version="1.0" encoding="UTF-8" standalone="no"?>
<!DOCTYPE svg PUBLIC "-//W3C//DTD SVG 1.1//EN" "http://www.w3.org/Graphics/SVG/1.1/DTD/svg11.dtd">
<svg width="612pt" height="792pt" viewBox="0 0 612 792" overflow="visible" version="1.1" xmlns="http://www.w3.org/2000/svg">
  <path d="M396.4893,178.6809 C396.7668,168.2424 392.0295,155.6846 383.382,147.037 C374.7344,138.3895 362.1766,133.6522 351.7381,133.9297 C341.2996,133.6522 328.7417,138.3895 320.0942,147.037 C311.4466,155.6846 306.7094,168.2424 306.9868,178.6809 C306.7094,189.1194 311.4466,201.6772 320.0942,210.3248 C328.7417,218.9723 341.2996,223.7096 351.7381,223.4321 C362.1766,223.7096 374.7344,218.9723 383.382,210.3248 C392.0295,201.6772 396.7668,189.1194 396.4893,178.6809 z" stroke="#57C25C" stroke-width="2.88" fill-opacity="0" />
  <path d="M464.1447,211.101 C471.9534,211.3085 481.3476,207.7647 487.8166,201.2957 C494.2856,194.8267 497.8294,185.4326 497.6218,177.6238 C497.8294,169.815 494.2856,160.4209 487.8166,153.9518 C481.3476,147.4828 471.9534,143.939 464.1447,144.1466" stroke="#57C25C" stroke-width="2.88" fill-opacity="0" />
  <path d="M238.6267,144.1466 C230.818,143.939 221.4238,147.4828 214.9548,153.9518 C208.4858,160.4209 204.942,169.815 205.1496,177.6238 C204.942,185.4326 208.4858,194.8267 214.9548,201.2957 C221.4238,207.7647 230.818,211.3085 238.6267,211.101" stroke="#57C25C" stroke-width="2.88" fill-opacity="0" />
  <path d="M586.2718,596.8068 L467.5225,596.8068 C463.0167,580.1646 443.7719,568.4427 429.6273,566.0192 C415.4828,563.5957 406.4386,570.4707 396.1611,575.6113 C385.8836,580.7519 374.3728,584.1581 359.2208,585.6263 C344.0688,587.0946 325.2757,586.6248 296.0582,581.6741 C266.8407,576.7234 227.1989,567.2919 133.549,567.2919 L133.549,446.8442 L248.776,446.8442 C256.7504,447.0562 266.3438,443.4372 272.95,436.831 C279.5562,430.2249 283.1751,420.6315 282.9631,412.6571 L422.1979,412.6571 C431.6012,443.7429 463.4613,434.3898 500.7077,449.2894 C537.954,464.1891 580.5867,503.3415 586.2718,596.8068 z" stroke="#57C25C" stroke-width="2.88" fill-opacity="0" />
  <path d="M62.80757,362.2593 L22.28481,362.2593 C17.79343,362.1399 12.39018,364.1783 8.669394,367.899 C4.948612,371.6198 2.910301,377.0231 3.029703,381.5144 L3.029703,631.1685 C2.910301,635.6599 4.948612,641.0632 8.669394,644.7839 C12.39018,648.5047 17.79343,650.543 22.28481,650.4236 L62.80757,650.4236 C67.29895,650.543 72.7022,648.5047 76.42298,644.7839 C80.14377,641.0632 82.18208,635.6599 82.06268,631.1685 L82.06268,381.5144 C82.18208,377.0231 80.14377,371.6198 76.42298,367.899 C72.7022,364.1783 67.29895,362.1399 62.80757,362.2593 z" stroke="#57C25C" stroke-width="2.88" fill-opacity="0" />
  <path d="M456.6216,658.0703 L597.1727,658.0703 C602.9779,658.6842 609.5588,651.8198 608.9703,645.7644 L608.9703,609.1127 C609.5588,603.0573 602.9779,596.1929 597.1727,596.8068 L456.6216,596.8068 C450.8164,596.1929 444.2355,603.0573 444.824,609.1127 L444.824,645.7644 C444.2355,651.8198 450.8164,658.6842 456.6216,658.0703 z" stroke="#57C25C" stroke-width="2.88" fill-opacity="0" />
  <path d="M268.9659,330.6653 L434.5102,330.6653 C437.7514,330.7515 441.6507,329.2805 444.3358,326.5954 C447.0209,323.9103 448.4919,320.011 448.4057,316.7698 L448.4057,275.3838 C448.4919,272.1425 447.0209,268.2433 444.3358,265.5582 C441.6507,262.873 437.7514,261.4021 434.5102,261.4883 L268.9659,261.4883 C265.7247,261.4021 261.8254,262.873 259.1404,265.5582 C256.4552,268.2433 254.9843,272.1425 255.0704,275.3838 L255.0704,316.7698 C254.9843,320.011 256.4552,323.9103 259.1404,326.5954 C261.8254,329.2805 265.7247,330.7515 268.9659,330.6653 z" stroke="#57C25C" stroke-width="2.88" fill-opacity="0" />
  <path d="M82.06268,599.6749 L114.2511,599.6749 C118.7424,599.7943 124.1457,597.756 127.8665,594.0352 C131.5873,590.3144 133.6256,584.9111 133.5062,580.4197 L133.5062,433.3131 C133.6256,428.8217 131.5873,423.4185 127.8665,419.6977 C124.1457,415.9769 118.7424,413.9386 114.2511,414.058 L82.06268,414.058" stroke="#57C25C" stroke-width="2.88" fill-opacity="0" />
  <path d="M282.9632,412.6571 L282.9632,330.6653" stroke="#57C25C" stroke-width="2.88" fill-opacity="0" />
  <path d="M382.5863,211.101 L382.5863,261.4883" stroke="#57C25C" stroke-width="2.88" fill-opacity="0" />
  <path d="M320.8899,211.101 L320.8899,261.4883" stroke="#57C25C" stroke-width="2.88" fill-opacity="0" />
  <path d="M382.5863,211.101 L464.1447,211.101" stroke="#57C25C" stroke-width="2.88" fill-opacity="0" />
  <path d="M238.6268,211.101 L320.8899,211.101" stroke="#57C25C" stroke-width="2.88" fill-opacity="0" />
  <path d="M380.1996,144.1466 L464.1447,144.1466" stroke="#57C25C" stroke-width="2.88" fill-opacity="0" />
  <path d="M238.6268,144.1466 L323.2766,144.1466" stroke="#57C25C" stroke-width="2.88" fill-opacity="0" />
  <path d="M422.1979,412.6571 L422.1979,330.6653" stroke="#57C25C" stroke-width="2.88" fill-opacity="0" />
</svg>