<?xml version="1.0" encoding="UTF-8" standalone="no"?>
<!DOCTYPE svg PUBLIC "-//W3C//DTD SVG 1.1//EN" "http://www.w3.org/Graphics/SVG/1.1/DTD/svg11.dtd">
<svg width="612pt" height="792pt" viewBox="0 0 612 792" overflow="visible" version="1.1" xmlns="http://www.w3.org/2000/svg">
  <path d="M3.029726,578.9734 L608.9703,578.9734" stroke="#000000" stroke-width="0.24" fill-opacity="0" />
  <path d="M153.7208,213.0267 L184.0178,213.0267 L184.0178,498.1813 L3.029726,498.1813" stroke="#000000" stroke-width="0.24" fill-opacity="0" />
  <path d="M431.2316,542.393 L431.2316,527.0071 L475.3379,527.0071 L475.3379,517.2627 L496.3653,534.7001 L475.3379,552.1375 L475.3379,542.393 z" stroke="#000000" stroke-width="0.24" fill-opacity="0" />
  <path d="M608.9703,498.1813 L427.9822,498.1813 L427.9822,213.0267 L458.2793,213.0267" stroke="#000000" stroke-width="0.24" fill-opacity="0" />
  <path d="M184.0178,241.4893 C183.0036,251.4932 194.3442,262.8337 204.3481,261.8196 C214.352,262.8337 225.6928,251.4932 224.6784,241.4893 C223.6643,251.4932 235.0049,262.8337 245.0089,261.8196 C255.0128,262.8337 266.3534,251.4932 265.3393,241.4893 C264.3249,251.4932 275.6657,262.8337 285.6696,261.8196 C295.6735,262.8337 307.0143,251.4932 305.9999,241.4893 C304.9857,251.4932 316.3263,262.8337 326.3302,261.8196 C336.3341,262.8337 347.6749,251.4932 346.6607,241.4893 C345.6466,251.4932 356.9872,262.8337 366.9911,261.8196 C376.9949,262.8337 388.3355,251.4932 387.3214,241.4893 C386.3072,251.4932 397.6478,262.8337 407.6519,261.8196 C417.6558,262.8337 428.9963,251.4932 427.9822,241.4893" stroke="#000000" stroke-width="0.24" fill-opacity="0" />
</svg>