<?xml version="1.0" encoding="UTF-8" standalone="no"?>
<!DOCTYPE svg PUBLIC "-//W3C//DTD SVG 1.1//EN" "http://www.w3.org/Graphics/SVG/1.1/DTD/svg11.dtd">
<svg width="612pt" height="792pt" viewBox="0 0 612 792" overflow="visible" version="1.1" xmlns="http://www.w3.org/2000/svg">
  <path d="M498.485,122.6457 L509.476,122.6457 L509.476,226.0918 L432.8276,226.0918 L432.8276,122.6457 L443.8185,122.6457" stroke="#000000" stroke-width="0.24" fill-opacity="0" />
  <path d="M43.61782,528.3138 L43.61782,462.6564 L14.02063,462.6564 L14.02063,329.9012 L3.029726,329.9012" stroke="#000000" stroke-width="0.24" fill-opacity="0" />
  <path d="M568.3822,321.0583 L568.3822,255.4009 L597.9794,255.4009 L597.9794,122.6457 L608.9703,122.6457" stroke="#000000" stroke-width="0.24" fill-opacity="0" />
  <path d="M550.9369,277.0135 L550.9369,261.013 L556.5185,261.013 L556.5185,277.0135 L560.0535,277.0135 L553.7277,284.6417 L547.4019,277.0135 z" stroke="#000000" stroke-width="0.24" fill-opacity="0" />
  <path d="M61.06316,484.269 L61.06316,468.2685 L55.48158,468.2685 L55.48158,484.269 L51.94658,484.269 L58.27237,491.8971 L64.59815,484.269 z" stroke="#000000" stroke-width="0.24" fill-opacity="0" />
  <path d="M278.6668,329.9012 L267.6759,329.9012 L267.6759,433.3473 L278.6668,433.3473 L344.3242,433.3473 L344.3242,329.9012 L333.3333,329.9012" stroke="#000000" stroke-width="0.24" fill-opacity="0" />
  <path d="M343.1454,449.3861 L343.1454,443.8045 L327.1449,443.8045 L327.1449,440.2695 L319.5167,446.5953 L327.1449,452.9211 L327.1449,449.3861 z" stroke="#000000" stroke-width="0.24" fill-opacity="0" />
  <path d="M113.515,329.9012 L102.5241,329.9012 L102.5241,433.3473 L179.1724,433.3473 L179.1724,329.9012 L168.1815,329.9012" stroke="#000000" stroke-width="0.24" fill-opacity="0" />
  <path d="M333.3333,122.6457 L344.3242,122.6457 L344.3242,226.0918 L333.3333,226.0918 L267.6759,226.0918 L267.6759,122.6457 L278.6668,122.6457" stroke="#000000" stroke-width="0.24" fill-opacity="0" />
  <path d="M3.029726,255.4009 L14.02063,255.4009 L102.5241,255.4009 L168.1815,255.4009 L179.1724,255.4009 L267.6759,255.4009 L333.3333,255.4009 L344.3242,255.4009 L432.8276,255.4009 L509.476,255.4009 L539.0731,255.4009 L539.0731,321.0583" stroke="#000000" stroke-width="0.24" fill-opacity="0" />
  <path d="M469.2646,640.0452 L432.8276,640.0452 L432.8276,536.5991 L443.8185,536.5991" stroke="#000000" stroke-width="0.24" fill-opacity="0" />
  <path d="M3.029726,536.5991 L14.02063,536.5991 L14.02063,640.0452 L3.029726,640.0452" stroke="#000000" stroke-width="0.24" fill-opacity="0" />
  <path d="M608.9703,462.6564 L597.9794,462.6564 L509.476,462.6564 L443.8185,462.6564 L432.8276,462.6564 L344.3242,462.6564 L278.6668,462.6564 L267.6759,462.6564 L179.1724,462.6564 L102.5241,462.6564 L72.92691,462.6564 L72.92691,528.3138" stroke="#000000" stroke-width="0.24" fill-opacity="0" />
  <path d="M438.5894,656.084 L438.5894,650.5024 L454.5899,650.5024 L454.5899,646.9674 L462.218,653.2932 L454.5899,659.619 L454.5899,656.084 z" stroke="#000000" stroke-width="0.24" fill-opacity="0" />
  <path d="M268.8546,656.084 L268.8546,650.5024 L284.8552,650.5024 L284.8552,646.9674 L292.4833,653.2932 L284.8552,659.619 L284.8552,656.084 z" stroke="#000000" stroke-width="0.24" fill-opacity="0" />
  <path d="M103.7029,242.1306 L103.7029,236.549 L119.7034,236.549 L119.7034,233.0141 L127.3316,239.3398 L119.7034,245.6656 L119.7034,242.1306 z" stroke="#000000" stroke-width="0.24" fill-opacity="0" />
  <path d="M3.029726,122.6457 L14.02063,122.6457 L14.02063,226.0918 L3.029726,226.0918" stroke="#000000" stroke-width="0.24" fill-opacity="0" />
  <path d="M608.9703,329.9012 L597.9794,329.9012 L597.9794,433.3473 L608.9703,433.3473" stroke="#000000" stroke-width="0.24" fill-opacity="0" />
  <path d="M508.2971,449.3861 L508.2971,443.8045 L492.2967,443.8045 L492.2967,440.2695 L484.6685,446.5953 L492.2967,452.9211 L492.2967,449.3861 z" stroke="#000000" stroke-width="0.24" fill-opacity="0" />
  <path d="M434.0064,242.1306 L434.0064,236.549 L450.007,236.549 L450.007,233.0141 L457.6351,239.3398 L450.007,245.6656 L450.007,242.1306 z" stroke="#000000" stroke-width="0.24" fill-opacity="0" />
  <path d="M443.8185,329.9012 L432.8276,329.9012 L432.8276,433.3473 L443.8185,433.3473 L509.476,433.3473 L509.476,329.9012 L498.485,329.9012" stroke="#000000" stroke-width="0.24" fill-opacity="0" />
  <path d="M103.7029,656.084 L103.7029,650.5024 L119.7034,650.5024 L119.7034,646.9674 L127.3316,653.2932 L119.7034,659.619 L119.7034,656.084 z" stroke="#000000" stroke-width="0.24" fill-opacity="0" />
  <path d="M177.9936,449.3861 L177.9936,443.8045 L161.9931,443.8045 L161.9931,440.2695 L154.3649,446.5953 L161.9931,452.9211 L161.9931,449.3861 z" stroke="#000000" stroke-width="0.24" fill-opacity="0" />
  <path d="M168.1815,122.6457 L179.1724,122.6457 L179.1724,226.0918 L168.1815,226.0918 L102.5241,226.0918 L102.5241,122.6457 L113.515,122.6457" stroke="#000000" stroke-width="0.24" fill-opacity="0" />
  <path d="M333.3333,536.5991 L344.3242,536.5991 L344.3242,640.0452 L333.3333,640.0452 L267.6759,640.0452 L267.6759,536.5991 L278.6668,536.5991" stroke="#000000" stroke-width="0.24" fill-opacity="0" />
  <path d="M268.8546,242.1306 L268.8546,236.549 L284.8552,236.549 L284.8552,233.0141 L292.4833,239.3398 L284.8552,245.6656 L284.8552,242.1306 z" stroke="#000000" stroke-width="0.24" fill-opacity="0" />
  <path d="M3.029726,669.3543 L14.02063,669.3543 L102.5241,669.3543 L168.1815,669.3543 L179.1724,669.3543 L267.6759,669.3543 L333.3333,669.3543 L344.3242,669.3543 L432.8276,669.3543 L470.6558,669.3543" stroke="#000000" stroke-width="0.24" fill-opacity="0" />
  <path d="M168.1815,536.5991 L179.1724,536.5991 L179.1724,640.0452 L168.1815,640.0452 L102.5241,640.0452 L102.5241,536.5991 L113.515,536.5991" stroke="#000000" stroke-width="0.24" fill-opacity="0" />
  <path d="M14.02062,132.9712 C13.65271,136.6003 17.76676,140.7143 21.39589,140.3464 C25.02501,140.7143 29.13913,136.6003 28.77115,132.9712 C28.40325,136.6003 32.5173,140.7143 36.1465,140.3464 C39.77562,140.7143 43.88967,136.6003 43.52177,132.9712 C43.15379,136.6003 47.26791,140.7143 50.89704,140.3464 C54.52616,140.7143 58.64028,136.6003 58.2723,132.9712 C57.9044,136.6003 62.01845,140.7143 65.64758,140.3464 C69.2767,140.7143 73.39082,136.6003 73.02292,132.9712 C72.65501,136.6003 76.76906,140.7143 80.39819,140.3464 C84.02731,140.7143 88.14136,136.6003 87.77345,132.9712 C87.40556,136.6003 91.5196,140.7143 95.1488,140.3464 C98.77792,140.7143 102.892,136.6003 102.5241,132.9712" stroke="#000000" stroke-width="0.24" fill-opacity="0" />
  <path d="M179.1724,132.9712 C178.8045,136.6003 182.9185,140.7143 186.5477,140.3464 C190.1768,140.7143 194.2909,136.6003 193.9229,132.9712 C193.555,136.6003 197.6691,140.7143 201.2983,140.3464 C204.9274,140.7143 209.0414,136.6003 208.6735,132.9712 C208.3056,136.6003 212.4197,140.7143 216.0488,140.3464 C219.6779,140.7143 223.7921,136.6003 223.4241,132.9712 C223.0562,136.6003 227.1702,140.7143 230.7993,140.3464 C234.4285,140.7143 238.5426,136.6003 238.1747,132.9712 C237.8068,136.6003 241.9208,140.7143 245.55,140.3464 C249.1791,140.7143 253.2931,136.6003 252.9252,132.9712 C252.5573,136.6003 256.6714,140.7143 260.3006,140.3464 C263.9297,140.7143 268.0437,136.6003 267.6758,132.9712" stroke="#000000" stroke-width="0.24" fill-opacity="0" />
  <path d="M344.3242,132.9712 C343.9563,136.6003 348.0703,140.7143 351.6994,140.3464 C355.3286,140.7143 359.4427,136.6003 359.0747,132.9712 C358.7068,136.6003 362.8208,140.7143 366.45,140.3464 C370.0792,140.7143 374.1932,136.6003 373.8253,132.9712 C373.4573,136.6003 377.5714,140.7143 381.2006,140.3464 C384.8297,140.7143 388.9438,136.6003 388.5758,132.9712 C388.2079,136.6003 392.322,140.7143 395.9511,140.3464 C399.5802,140.7143 403.6944,136.6003 403.3264,132.9712 C402.9586,136.6003 407.0726,140.7143 410.7017,140.3464 C414.3309,140.7143 418.4449,136.6003 418.077,132.9712 C417.7091,136.6003 421.8232,140.7143 425.4523,140.3464 C429.0815,140.7143 433.1955,136.6003 432.8276,132.9712" stroke="#000000" stroke-width="0.24" fill-opacity="0" />
  <path d="M509.4759,132.9712 C509.108,136.6003 513.222,140.7143 516.8512,140.3464 C520.4803,140.7143 524.5944,136.6003 524.2265,132.9712 C523.8586,136.6003 527.9726,140.7143 531.6018,140.3464 C535.231,140.7143 539.345,136.6003 538.9771,132.9712 C538.6091,136.6003 542.7232,140.7143 546.3524,140.3464 C549.9815,140.7143 554.0956,136.6003 553.7276,132.9712 C553.3597,136.6003 557.4738,140.7143 561.1029,140.3464 C564.732,140.7143 568.8461,136.6003 568.4782,132.9712 C568.1104,136.6003 572.2244,140.7143 575.8535,140.3464 C579.4826,140.7143 583.5967,136.6003 583.2288,132.9712 C582.8608,136.6003 586.9749,140.7143 590.6041,140.3464 C594.2332,140.7143 598.3473,136.6003 597.9794,132.9712" stroke="#000000" stroke-width="0.24" fill-opacity="0" />
  <path d="M102.5241,340.2266 C102.892,343.8557 98.77792,347.9698 95.1488,347.6019 C91.51967,347.9698 87.40556,343.8557 87.77353,340.2266 C88.14143,343.8557 84.02738,347.9698 80.39819,347.6019 C76.76906,347.9698 72.65501,343.8557 73.02292,340.2266 C73.39089,343.8557 69.27677,347.9698 65.64764,347.6019 C62.01852,347.9698 57.9044,343.8557 58.27238,340.2266 C58.64028,343.8557 54.52623,347.9698 50.89711,347.6019 C47.26798,347.9698 43.15387,343.8557 43.52177,340.2266 C43.88967,343.8557 39.77562,347.9698 36.1465,347.6019 C32.51737,347.9698 28.40333,343.8557 28.77123,340.2266 C29.13913,343.8557 25.02509,347.9698 21.39589,347.6019 C17.76676,347.9698 13.65271,343.8557 14.02062,340.2266" stroke="#000000" stroke-width="0.24" fill-opacity="0" />
  <path d="M267.6758,340.2266 C268.0437,343.8557 263.9297,347.9698 260.3006,347.6019 C256.6714,347.9698 252.5573,343.8557 252.9253,340.2266 C253.2932,343.8557 249.1792,347.9698 245.55,347.6019 C241.9208,347.9698 237.8068,343.8557 238.1747,340.2266 C238.5427,343.8557 234.4285,347.9698 230.7994,347.6019 C227.1703,347.9698 223.0562,343.8557 223.4241,340.2266 C223.7921,343.8557 219.678,347.9698 216.0489,347.6019 C212.4198,347.9698 208.3056,343.8557 208.6735,340.2266 C209.0414,343.8557 204.9274,347.9698 201.2983,347.6019 C197.6691,347.9698 193.5551,343.8557 193.923,340.2266 C194.2909,343.8557 190.1769,347.9698 186.5477,347.6019 C182.9185,347.9698 178.8045,343.8557 179.1724,340.2266" stroke="#000000" stroke-width="0.24" fill-opacity="0" />
  <path d="M432.8276,340.2266 C433.1955,343.8557 429.0815,347.9698 425.4523,347.6019 C421.8232,347.9698 417.7091,343.8557 418.0771,340.2266 C418.445,343.8557 414.3309,347.9698 410.7017,347.6019 C407.0726,347.9698 402.9586,343.8557 403.3264,340.2266 C403.6944,343.8557 399.5803,347.9698 395.9512,347.6019 C392.3221,347.9698 388.2079,343.8557 388.5759,340.2266 C388.9438,343.8557 384.8298,347.9698 381.2007,347.6019 C377.5715,347.9698 373.4574,343.8557 373.8253,340.2266 C374.1932,343.8557 370.0792,347.9698 366.45,347.6019 C362.8209,347.9698 358.7069,343.8557 359.0748,340.2266 C359.4427,343.8557 355.3286,347.9698 351.6994,347.6019 C348.0703,347.9698 343.9563,343.8557 344.3242,340.2266" stroke="#000000" stroke-width="0.24" fill-opacity="0" />
  <path d="M597.9794,340.2266 C598.3473,343.8557 594.2332,347.9698 590.6041,347.6019 C586.975,347.9698 582.8608,343.8557 583.2288,340.2266 C583.5967,343.8557 579.4827,347.9698 575.8535,347.6019 C572.2244,347.9698 568.1104,343.8557 568.4782,340.2266 C568.8462,343.8557 564.7321,347.9698 561.103,347.6019 C557.4738,347.9698 553.3597,343.8557 553.7277,340.2266 C554.0956,343.8557 549.9816,347.9698 546.3524,347.6019 C542.7233,347.9698 538.6092,343.8557 538.9771,340.2266 C539.345,343.8557 535.231,347.9698 531.6018,347.6019 C527.9727,347.9698 523.8586,343.8557 524.2266,340.2266 C524.5944,343.8557 520.4804,347.9698 516.8512,347.6019 C513.222,347.9698 509.108,343.8557 509.4759,340.2266" stroke="#000000" stroke-width="0.24" fill-opacity="0" />
  <path d="M14.02062,546.9245 C13.65271,550.5536 17.76676,554.6677 21.39589,554.2998 C25.02501,554.6677 29.13913,550.5536 28.77115,546.9245 C28.40325,550.5536 32.5173,554.6677 36.1465,554.2998 C39.77562,554.6677 43.88967,550.5536 43.52177,546.9245 C43.15379,550.5536 47.26791,554.6677 50.89704,554.2998 C54.52616,554.6677 58.64028,550.5536 58.2723,546.9245 C57.9044,550.5536 62.01845,554.6677 65.64758,554.2998 C69.2767,554.6677 73.39082,550.5536 73.02292,546.9245 C72.65501,550.5536 76.76906,554.6677 80.39819,554.2998 C84.02731,554.6677 88.14136,550.5536 87.77345,546.9245 C87.40556,550.5536 91.5196,554.6677 95.1488,554.2998 C98.77792,554.6677 102.892,550.5536 102.5241,546.9245" stroke="#000000" stroke-width="0.24" fill-opacity="0" />
  <path d="M179.1724,546.9245 C178.8045,550.5536 182.9185,554.6677 186.5477,554.2998 C190.1768,554.6677 194.2909,550.5536 193.9229,546.9245 C193.555,550.5536 197.6691,554.6677 201.2983,554.2998 C204.9274,554.6677 209.0414,550.5536 208.6735,546.9245 C208.3056,550.5536 212.4197,554.6677 216.0488,554.2998 C219.6779,554.6677 223.7921,550.5536 223.4241,546.9245 C223.0562,550.5536 227.1702,554.6677 230.7993,554.2998 C234.4285,554.6677 238.5426,550.5536 238.1747,546.9245 C237.8068,550.5536 241.9208,554.6677 245.55,554.2998 C249.1791,554.6677 253.2931,550.5536 252.9252,546.9245 C252.5573,550.5536 256.6714,554.6677 260.3006,554.2998 C263.9297,554.6677 268.0437,550.5536 267.6758,546.9245" stroke="#000000" stroke-width="0.24" fill-opacity="0" />
  <path d="M344.3242,546.9245 C343.9563,550.5536 348.0703,554.6677 351.6994,554.2998 C355.3286,554.6677 359.4427,550.5536 359.0747,546.9245 C358.7068,550.5536 362.8208,554.6677 366.45,554.2998 C370.0792,554.6677 374.1932,550.5536 373.8253,546.9245 C373.4573,550.5536 377.5714,554.6677 381.2006,554.2998 C384.8297,554.6677 388.9438,550.5536 388.5758,546.9245 C388.2079,550.5536 392.322,554.6677 395.9511,554.2998 C399.5802,554.6677 403.6944,550.5536 403.3264,546.9245 C402.9586,550.5536 407.0726,554.6677 410.7017,554.2998 C414.3309,554.6677 418.4449,550.5536 418.077,546.9245 C417.7091,550.5536 421.8232,554.6677 425.4523,554.2998 C429.0815,554.6677 433.1955,550.5536 432.8276,546.9245" stroke="#000000" stroke-width="0.24" fill-opacity="0" />
</svg>