<?xml version="1.0" encoding="UTF-8" standalone="no"?>
<!DOCTYPE svg PUBLIC "-//W3C//DTD SVG 1.1//EN" "http://www.w3.org/Graphics/SVG/1.1/DTD/svg11.dtd">
<svg  viewBox="200 200 200 400" overflow="visible" version="1.1" xmlns="http://www.w3.org/2000/svg">
  <path d="M219.5796,347.6104 C219.0775,352.5633 224.6922,358.178 229.6451,357.6759 C234.598,358.178 240.2128,352.5633 239.7106,347.6104 C239.2085,352.5633 244.8232,358.178 249.7762,357.6759 C254.7291,358.178 260.3438,352.5633 259.8417,347.6104 C259.3395,352.5633 264.9543,358.178 269.9072,357.6759 C274.8601,358.178 280.4749,352.5633 279.9727,347.6104 C279.4706,352.5633 285.0853,358.178 290.0382,357.6759 C294.9911,358.178 300.6059,352.5633 300.1038,347.6104 C299.6017,352.5633 305.2164,358.178 310.1693,357.6759 C315.1222,358.178 320.7369,352.5633 320.2348,347.6104 C319.7327,352.5633 325.3474,358.178 330.3004,357.6759 C335.2533,358.178 340.868,352.5633 340.3659,347.6104" stroke="#00B3FF" stroke-width="0.5" fill-opacity="0" />
  <path d="M219.5796,333.5186 L219.5796,514.6981 L340.3659,514.6981 L340.3659,333.5186" stroke="#00B3FF" stroke-width="0.5" fill-opacity="0" />
</svg>