<?xml version="1.0" encoding="UTF-8" standalone="no"?>
<!DOCTYPE svg PUBLIC "-//W3C//DTD SVG 1.1//EN" "http://www.w3.org/Graphics/SVG/1.1/DTD/svg11.dtd">
<svg width="612pt" height="792pt" viewBox="0 0 612 792" overflow="visible" version="1.1" xmlns="http://www.w3.org/2000/svg">
  <path d="M44.61386,64.91089 C44.34372,75.07256 48.95536,87.29733 57.37357,95.71555 C65.79177,104.1338 78.01654,108.7454 88.17822,108.4753 C98.33989,108.7454 110.5647,104.1338 118.9829,95.71555 C127.4011,87.29733 132.0127,75.07256 131.7426,64.91089 C131.4724,75.07256 136.0841,87.29733 144.5023,95.71555 C152.9205,104.1338 165.1453,108.7454 175.3069,108.4753 C185.4686,108.7454 197.6934,104.1338 206.1116,95.71555 C214.5298,87.29733 219.1414,75.07256 218.8713,64.91089 C218.6012,75.07256 223.2128,87.29733 231.631,95.71555 C240.0492,104.1338 252.274,108.7454 262.4356,108.4753 C272.5973,108.7454 284.8221,104.1338 293.2403,95.71555 C301.6585,87.29733 306.2701,75.07256 306,64.91089 C305.7299,75.07256 310.3415,87.29733 318.7597,95.71555 C327.1779,104.1338 339.4027,108.7454 349.5644,108.4753 C359.726,108.7454 371.9508,104.1338 380.369,95.71555 C388.7872,87.29733 393.3989,75.07256 393.1287,64.91089 C392.8586,75.07256 397.4702,87.29733 405.8884,95.71555 C414.3066,104.1338 426.5314,108.7454 436.6931,108.4753 C446.8547,108.7454 459.0795,104.1338 467.4977,95.71555 C475.9159,87.29733 480.5276,75.07256 480.2574,64.91089 C479.9873,75.07256 484.5989,87.29733 493.0171,95.71555 C501.4353,104.1338 513.6601,108.7454 523.8218,108.4753 C533.9835,108.7454 546.2083,104.1338 554.6264,95.71555 C563.0446,87.29733 567.6563,75.07256 567.3861,64.91089" stroke="#00B3FF" stroke-width="2" fill-opacity="0" />
  <path d="M44.61389,3.920815 L44.61389,788.0792 L567.3862,788.0792 L567.3862,3.920815" stroke="#008000" stroke-width="2" fill-opacity="0" />
</svg>