<?xml version="1.0" encoding="UTF-8" standalone="no"?>
<!DOCTYPE svg PUBLIC "-//W3C//DTD SVG 1.1//EN" "http://www.w3.org/Graphics/SVG/1.1/DTD/svg11.dtd">
<svg width="612pt" height="792pt" viewBox="0 0 612 792" overflow="visible" version="1.1" xmlns="http://www.w3.org/2000/svg">
  <path d="M57.94271,61.80083 C57.68634,71.44433 62.06282,83.04572 70.05176,91.03466 C78.0407,99.0236 89.64209,103.4001 99.28559,103.1437 C108.9291,103.4001 120.5305,99.0236 128.5194,91.03466 C136.5084,83.04572 140.8848,71.44433 140.6285,61.80083 C140.3721,71.44433 144.7486,83.04572 152.7375,91.03466 C160.7265,99.0236 172.3279,103.4001 181.9714,103.1437 C191.6149,103.4001 203.2162,99.0236 211.2052,91.03466 C219.1941,83.04572 223.5706,71.44433 223.3142,61.80083 C223.0579,71.44433 227.4344,83.04572 235.4233,91.03466 C243.4122,99.0236 255.0136,103.4001 264.6571,103.1437 C274.3006,103.4001 285.902,99.0236 293.891,91.03466 C301.8799,83.04572 306.2564,71.44433 306,61.80083 C305.7436,71.44433 310.1201,83.04572 318.109,91.03466 C326.098,99.0236 337.6994,103.4001 347.3429,103.1437 C356.9864,103.4001 368.5878,99.0236 376.5767,91.03466 C384.5656,83.04572 388.9421,71.44433 388.6858,61.80083 C388.4294,71.44433 392.8059,83.04572 400.7948,91.03466 C408.7838,99.0236 420.3851,103.4001 430.0287,103.1437 C439.6721,103.4001 451.2735,99.0236 459.2625,91.03466 C467.2514,83.04572 471.6279,71.44433 471.3715,61.80083 C471.1151,71.44433 475.4916,83.04572 483.4806,91.03466 C491.4695,99.0236 503.0709,103.4001 512.7144,103.1437 C522.3579,103.4001 533.9593,99.0236 541.9482,91.03466 C549.9372,83.04572 554.3137,71.44433 554.0573,61.80083" stroke="#00B3FF" stroke-width="0.24" fill-opacity="0" />
  <path d="M594.0438,3.920815 L594.0438,788.0792 L17.95619,788.0792 L17.95619,3.920815 L57.94273,3.920815 L57.94273,748.0927 L554.0573,748.0927 L554.0573,3.920815 z" stroke="#00B3FF" stroke-width="0.24" fill-opacity="0" />
</svg>