<?xml version="1.0" encoding="UTF-8" standalone="no"?>
<!DOCTYPE svg PUBLIC "-//W3C//DTD SVG 1.1//EN" "http://www.w3.org/Graphics/SVG/1.1/DTD/svg11.dtd">
<svg width="612pt" height="792pt" viewBox="0 0 612 792" overflow="visible" version="1.1" xmlns="http://www.w3.org/2000/svg">
  <path d="M130.0268,410.7876 L426.7521,410.7876" stroke="#000000" stroke-width="0.24" fill-opacity="0" />
  <path d="M203.8193,231.5858 L218.6556,231.5858 L218.6556,371.2242 L130.0268,371.2242" stroke="#000000" stroke-width="0.24" fill-opacity="0" />
  <path d="M426.7521,371.2242 L338.1234,371.2242 L338.1234,231.5858 L352.9596,231.5858" stroke="#000000" stroke-width="0.24" fill-opacity="0" />
  <path d="M339.7146,392.8744 L339.7146,385.34 L361.3131,385.34 L361.3131,380.5683 L371.6101,389.1072 L361.3131,397.6462 L361.3131,392.8744 z" stroke="#000000" stroke-width="0.24" fill-opacity="0" />
  <path d="M218.6555,245.5238 C218.1589,250.4226 223.7123,255.976 228.6112,255.4794 C233.51,255.976 239.0635,250.4226 238.5668,245.5238 C238.0702,250.4226 243.6236,255.976 248.5225,255.4794 C253.4213,255.976 258.9748,250.4226 258.4781,245.5238 C257.9814,250.4226 263.5349,255.976 268.4338,255.4794 C273.3326,255.976 278.8861,250.4226 278.3894,245.5238 C277.8928,250.4226 283.4462,255.976 288.345,255.4794 C293.2438,255.976 298.7974,250.4226 298.3008,245.5238 C297.8041,250.4226 303.3575,255.976 308.2564,255.4794 C313.1552,255.976 318.7086,250.4226 318.212,245.5238 C317.7154,250.4226 323.2688,255.976 328.1677,255.4794 C333.0666,255.976 338.62,250.4226 338.1234,245.5238" stroke="#000000" stroke-width="0.24" fill-opacity="0" />
</svg>