<?xml version="1.0" encoding="UTF-8" standalone="no"?>
<!DOCTYPE svg PUBLIC "-//W3C//DTD SVG 1.1//EN" "http://www.w3.org/Graphics/SVG/1.1/DTD/svg11.dtd">
<svg width="612pt" height="792pt" viewBox="0 0 612 792" overflow="visible" version="1.1" xmlns="http://www.w3.org/2000/svg">
  <path d="M367.6336,448.6407 L367.6336,437.1624 L371.6376,437.1624 L371.6376,448.6407 L374.1736,448.6407 L369.6356,454.1129 L365.0977,448.6407 z" stroke="#000000" stroke-width="0.24" fill-opacity="0" />
  <path d="M330.006,337.9012 L337.8906,337.9012 L337.8906,412.1108 L290.7896,412.1108" stroke="#000000" stroke-width="0.24" fill-opacity="0" />
  <path d="M380.1484,433.1364 L401.3806,433.1364" stroke="#000000" stroke-width="0.24" fill-opacity="0" />
  <path d="M380.1484,480.2373 L380.1484,433.1364" stroke="#000000" stroke-width="0.24" fill-opacity="0" />
  <path d="M337.8906,433.1364 L359.1228,433.1364" stroke="#000000" stroke-width="0.24" fill-opacity="0" />
  <path d="M290.7896,433.1364 L337.8906,433.1364" stroke="#000000" stroke-width="0.24" fill-opacity="0" />
  <path d="M401.3806,337.9012 L409.2653,337.9012" stroke="#000000" stroke-width="0.24" fill-opacity="0" />
  <path d="M359.1228,433.1364 L359.1228,480.2373" stroke="#000000" stroke-width="0.24" fill-opacity="0" />
  <path d="M401.3806,433.1364 L401.3806,337.9012" stroke="#000000" stroke-width="0.24" fill-opacity="0" />
  <path d="M337.8905,345.3084 C337.6266,347.9119 340.5779,350.8632 343.1814,350.5992 C345.7848,350.8632 348.7362,347.9119 348.4722,345.3084 C348.2083,347.9119 351.1596,350.8632 353.7631,350.5992 C356.3665,350.8632 359.3178,347.9119 359.0539,345.3084 C358.7899,347.9119 361.7413,350.8632 364.3447,350.5992 C366.9482,350.8632 369.8995,347.9119 369.6356,345.3084 C369.3716,347.9119 372.3229,350.8632 374.9264,350.5992 C377.5298,350.8632 380.4812,347.9119 380.2173,345.3084 C379.9533,347.9119 382.9047,350.8632 385.5081,350.5992 C388.1115,350.8632 391.0628,347.9119 390.7989,345.3084 C390.535,347.9119 393.4863,350.8632 396.0898,350.5992 C398.6932,350.8632 401.6446,347.9119 401.3806,345.3084" stroke="#000000" stroke-width="0.24" fill-opacity="0" />
</svg>